<?xml version="1.0" encoding="UTF-8" standalone="no"?>
<!-- Created with Inkscape (http://www.inkscape.org/) -->

<svg
   width="1920"
   height="1200"
   viewBox="0 0 1920 1200"
   version="1.1"
   id="svg5"
   xml:space="preserve"
   xmlns:xlink="http://www.w3.org/1999/xlink"
   xmlns="http://www.w3.org/2000/svg"
   xmlns:svg="http://www.w3.org/2000/svg"
   xmlns:i="http://ns.adobe.com/AdobeIllustrator/10.0/"><defs
     id="defs2"><linearGradient
       id="linearGradient2863"><stop
         style="stop-color:#265a78;stop-opacity:0.88;"
         offset="0"
         id="stop2859" /><stop
         style="stop-color:#265a78;stop-opacity:1;"
         offset="0.24582241"
         id="stop2861" /></linearGradient><linearGradient
       id="linearGradient2857"><stop
         style="stop-color:#265a78;stop-opacity:0.92000002;"
         offset="0"
         id="stop2853" /><stop
         style="stop-color:#265a78;stop-opacity:1;"
         offset="0.24582241"
         id="stop2855" /></linearGradient><linearGradient
       id="linearGradient2851"><stop
         style="stop-color:#265a78;stop-opacity:0.95999998;"
         offset="0"
         id="stop2847" /><stop
         style="stop-color:#265a78;stop-opacity:1;"
         offset="0.24582241"
         id="stop2849" /></linearGradient><linearGradient
       id="linearGradient2031"><stop
         style="stop-color:#264d64;stop-opacity:0.83999997;"
         offset="0.19950303"
         id="stop2027" /><stop
         style="stop-color:#264d64;stop-opacity:0.99000001;"
         offset="0.45128444"
         id="stop2029" /></linearGradient><linearGradient
       id="linearGradient2025"><stop
         style="stop-color:#264d64;stop-opacity:0.88;"
         offset="0.20241019"
         id="stop2021" /><stop
         style="stop-color:#264d64;stop-opacity:0.99000001;"
         offset="0.45128444"
         id="stop2023" /></linearGradient><linearGradient
       id="linearGradient2019"><stop
         style="stop-color:#264d64;stop-opacity:0.92000002;"
         offset="0.19568871"
         id="stop2015" /><stop
         style="stop-color:#264d64;stop-opacity:0.99000001;"
         offset="0.45128444"
         id="stop2017" /></linearGradient><linearGradient
       id="linearGradient13605"><stop
         style="stop-color:#264d64;stop-opacity:0.95999998;"
         offset="0.19971497"
         id="stop13601" /><stop
         style="stop-color:#264d64;stop-opacity:0.99000001;"
         offset="0.45128444"
         id="stop13603" /></linearGradient><linearGradient
       id="linearGradient13597"><stop
         style="stop-color:#264d64;stop-opacity:0.80000001;"
         offset="0.19980925"
         id="stop13593" /><stop
         style="stop-color:#264d64;stop-opacity:0.97000003;"
         offset="0.45180532"
         id="stop13595" /></linearGradient><linearGradient
       id="linearGradient13589"><stop
         style="stop-color:#264d64;stop-opacity:0.75999999;"
         offset="0.20148337"
         id="stop13585" /><stop
         style="stop-color:#264d64;stop-opacity:0.95999998;"
         offset="0.45282581"
         id="stop13587" /></linearGradient><linearGradient
       id="linearGradient13581"><stop
         style="stop-color:#264d64;stop-opacity:0.72000003;"
         offset="0.20001823"
         id="stop13577" /><stop
         style="stop-color:#264d64;stop-opacity:0.94999999;"
         offset="0.44871116"
         id="stop13579" /></linearGradient><linearGradient
       id="linearGradient12656"><stop
         style="stop-color:#265e7f;stop-opacity:0.88999999;"
         offset="0"
         id="stop12654" /><stop
         style="stop-color:#276082;stop-opacity:1;"
         offset="0.3511188"
         id="stop12652" /><stop
         style="stop-color:#276082;stop-opacity:1;"
         offset="0.84502661"
         id="stop13554" /><stop
         style="stop-color:#276082;stop-opacity:0.75777662;"
         offset="0.99940705"
         id="stop13556" /></linearGradient><linearGradient
       id="linearGradient12648"><stop
         style="stop-color:#265e7f;stop-opacity:1;"
         offset="0"
         id="stop12646" /><stop
         style="stop-color:#276082;stop-opacity:1;"
         offset="0.34994966"
         id="stop12644" /><stop
         style="stop-color:#276082;stop-opacity:1;"
         offset="0.85264051"
         id="stop13562" /><stop
         style="stop-color:#276082;stop-opacity:0.95999998;"
         offset="1"
         id="stop13564" /></linearGradient><linearGradient
       id="linearGradient12640"><stop
         style="stop-color:#265e7f;stop-opacity:0.92000002;"
         offset="0"
         id="stop12638" /><stop
         style="stop-color:#276082;stop-opacity:1;"
         offset="0.35348684"
         id="stop12636" /><stop
         style="stop-color:#276082;stop-opacity:1;"
         offset="0.8476584"
         id="stop13558" /><stop
         style="stop-color:#276082;stop-opacity:0.85000002;"
         offset="1"
         id="stop13560" /></linearGradient><linearGradient
       id="linearGradient12241"><stop
         style="stop-color:#265a78;stop-opacity:0.83999997;"
         offset="0"
         id="stop12239" /><stop
         style="stop-color:#265a78;stop-opacity:1;"
         offset="0.24582241"
         id="stop12237" /></linearGradient><linearGradient
       id="linearGradient12231"><stop
         style="stop-color:#265a78;stop-opacity:0.80000001;"
         offset="0"
         id="stop12229" /><stop
         style="stop-color:#265a78;stop-opacity:1;"
         offset="0.24852315"
         id="stop12227" /></linearGradient><linearGradient
       id="linearGradient12221"><stop
         style="stop-color:#265a78;stop-opacity:0.75999999;"
         offset="0.00097245"
         id="stop12219" /><stop
         style="stop-color:#265a78;stop-opacity:1;"
         offset="0.24779135"
         id="stop12217" /></linearGradient><linearGradient
       id="linearGradient10904"><stop
         style="stop-color:#26526d;stop-opacity:0.96470588;"
         offset="0"
         id="stop13370" /><stop
         style="stop-color:#26526d;stop-opacity:1;"
         offset="0.29141125"
         id="stop13368" /><stop
         style="stop-color:#26526d;stop-opacity:1;"
         offset="0.86353546"
         id="stop10900" /><stop
         style="stop-color:#26526d;stop-opacity:0.98000002;"
         offset="0.99957526"
         id="stop10902" /></linearGradient><linearGradient
       id="linearGradient10891"><stop
         style="stop-color:#26526d;stop-opacity:0.90196078;"
         offset="0.00538627"
         id="stop13372" /><stop
         style="stop-color:#26526d;stop-opacity:1;"
         offset="0.2845304"
         id="stop13366" /><stop
         style="stop-color:#26526d;stop-opacity:1;"
         offset="0.86029023"
         id="stop10887" /><stop
         style="stop-color:#26526d;stop-opacity:0.89999998;"
         offset="1"
         id="stop10889" /></linearGradient><linearGradient
       id="linearGradient5205"><stop
         style="stop-color:#264d64;stop-opacity:0.78033167;"
         offset="0"
         id="stop5201" /><stop
         style="stop-color:#264d64;stop-opacity:0;"
         offset="1"
         id="stop5203" /></linearGradient><linearGradient
       id="linearGradient4998"><stop
         style="stop-color:#27678d;stop-opacity:0.26100576;"
         offset="0"
         id="stop4994" /><stop
         style="stop-color:#27678d;stop-opacity:0;"
         offset="0.79514837"
         id="stop4996" /></linearGradient><linearGradient
       id="linearGradient4887"><stop
         style="stop-color:#296385;stop-opacity:1;"
         offset="0"
         id="stop4883" /><stop
         style="stop-color:#265a78;stop-opacity:0;"
         offset="1"
         id="stop4885" /></linearGradient><linearGradient
       id="linearGradient4697"><stop
         style="stop-color:#27678d;stop-opacity:1;"
         offset="0"
         id="stop4693" /><stop
         style="stop-color:#27678d;stop-opacity:0;"
         offset="0.81461072"
         id="stop4695" /></linearGradient><linearGradient
       id="linearGradient4622"><stop
         style="stop-color:#27678d;stop-opacity:1;"
         offset="0"
         id="stop4618" /><stop
         style="stop-color:#27678d;stop-opacity:0;"
         offset="1"
         id="stop4620" /></linearGradient><linearGradient
       id="linearGradient3744"><stop
         style="stop-color:#276082;stop-opacity:0;"
         offset="0.37055299"
         id="stop3742" /><stop
         style="stop-color:#276082;stop-opacity:1;"
         offset="1"
         id="stop3740" /></linearGradient><linearGradient
       id="linearGradient3734"><stop
         style="stop-color:#265a78;stop-opacity:0;"
         offset="0.20029873"
         id="stop3732" /><stop
         style="stop-color:#265a78;stop-opacity:1;"
         offset="1"
         id="stop3730" /></linearGradient><linearGradient
       id="linearGradient3724"><stop
         style="stop-color:#26536e;stop-opacity:0;"
         offset="0.72692394"
         id="stop3722" /><stop
         style="stop-color:#26536e;stop-opacity:1;"
         offset="1"
         id="stop3720" /></linearGradient><linearGradient
       id="linearGradient3714"><stop
         style="stop-color:#264d64;stop-opacity:0;"
         offset="0.81924415"
         id="stop3712" /><stop
         style="stop-color:#264d64;stop-opacity:1;"
         offset="1"
         id="stop3710" /></linearGradient><linearGradient
       id="linearGradient3704"><stop
         style="stop-color:#26475b;stop-opacity:0;"
         offset="0.69804424"
         id="stop3702" /><stop
         style="stop-color:#26475b;stop-opacity:1;"
         offset="1"
         id="stop3700" /></linearGradient><radialGradient
       xlink:href="#linearGradient3704"
       id="radialGradient3706"
       cx="2007.3448"
       cy="1737.1503"
       fx="2007.3448"
       fy="1737.1503"
       r="960"
       gradientTransform="matrix(0.00723467,-1.3372591,2.3898301,0.01292916,-2158.6725,4008.6)"
       gradientUnits="userSpaceOnUse" /><radialGradient
       xlink:href="#linearGradient3714"
       id="radialGradient3716"
       cx="-55.602444"
       cy="1782.1582"
       fx="-55.602444"
       fy="1782.1582"
       r="960.29187"
       gradientTransform="matrix(2.05918,0.02715482,-0.01296202,0.98292472,81.99338,-430.96247)"
       gradientUnits="userSpaceOnUse" /><radialGradient
       xlink:href="#linearGradient3724"
       id="radialGradient3726"
       cx="1903.3966"
       cy="1837.443"
       fx="1903.3966"
       fy="1837.443"
       r="905.96039"
       gradientTransform="matrix(4.1816944e-4,-0.99999991,1.9569881,8.183527e-4,-1647.0816,3219.8482)"
       gradientUnits="userSpaceOnUse" /><radialGradient
       xlink:href="#linearGradient3734"
       id="radialGradient3736"
       cx="-63.3279"
       cy="1895.5513"
       fx="-63.3279"
       fy="1895.5513"
       r="851.67627"
       gradientTransform="matrix(1.7670923,0.01726974,-0.00680528,0.69633754,61.478115,-5.3392463)"
       gradientUnits="userSpaceOnUse" /><radialGradient
       xlink:href="#linearGradient3744"
       id="radialGradient3746"
       cx="2002.5957"
       cy="1425.4607"
       fx="2002.5957"
       fy="1425.4607"
       r="513.49005"
       gradientTransform="matrix(-0.0012629,-1.1197073,1.4443859,-0.00162911,-53.790451,3537.0539)"
       gradientUnits="userSpaceOnUse" /><radialGradient
       xlink:href="#linearGradient4622"
       id="radialGradient4624"
       cx="1216.8583"
       cy="698.47076"
       fx="1216.8583"
       fy="698.47076"
       r="339.73563"
       gradientTransform="matrix(1,0,0,1.1945667,189.64906,-840.95013)"
       gradientUnits="userSpaceOnUse" /><radialGradient
       xlink:href="#linearGradient4697"
       id="radialGradient4682"
       gradientUnits="userSpaceOnUse"
       gradientTransform="matrix(1.028887,0,0,2.7123809,-1591.0997,-641.24898)"
       cx="1216.8583"
       cy="698.47076"
       fx="1216.8583"
       fy="698.47076"
       r="339.73563" /><radialGradient
       xlink:href="#linearGradient4887"
       id="radialGradient4889"
       cx="1284.9818"
       cy="-772.8031"
       fx="1284.9818"
       fy="-772.8031"
       r="254.67998"
       gradientTransform="matrix(1,0,0,1.628897,0,478.42386)"
       gradientUnits="userSpaceOnUse" /><radialGradient
       xlink:href="#linearGradient4998"
       id="radialGradient4992"
       gradientUnits="userSpaceOnUse"
       gradientTransform="matrix(1,0,0,1.1945667,-28.878962,-729.58884)"
       cx="1216.8583"
       cy="698.47076"
       fx="1216.8583"
       fy="698.47076"
       r="339.73563" /><radialGradient
       xlink:href="#linearGradient5205"
       id="radialGradient5207"
       cx="1279.6924"
       cy="835.54907"
       fx="1279.6924"
       fy="835.54907"
       r="321.97171"
       gradientTransform="matrix(1.2032907,-1.6072458,1.3530185,1.0129592,-1390.6628,1858.2759)"
       gradientUnits="userSpaceOnUse" /><linearGradient
       xlink:href="#linearGradient10891"
       id="linearGradient10893"
       x1="108.0625"
       y1="733.04877"
       x2="1919.9824"
       y2="733.04877"
       gradientUnits="userSpaceOnUse" /><linearGradient
       xlink:href="#linearGradient10904"
       id="linearGradient10898"
       gradientUnits="userSpaceOnUse"
       x1="108.0625"
       y1="733.04877"
       x2="1919.9824"
       y2="733.04877"
       gradientTransform="translate(0,14)" /><linearGradient
       xlink:href="#linearGradient12221"
       id="linearGradient12223"
       x1="-3.9511719"
       y1="853.08008"
       x2="1699.4023"
       y2="853.08008"
       gradientUnits="userSpaceOnUse" /><linearGradient
       xlink:href="#linearGradient12231"
       id="linearGradient12233"
       x1="-3.9511719"
       y1="859.08014"
       x2="1699.4023"
       y2="859.08014"
       gradientUnits="userSpaceOnUse" /><linearGradient
       xlink:href="#linearGradient2863"
       id="linearGradient12243"
       x1="-3.9511719"
       y1="863.08014"
       x2="1699.4023"
       y2="863.08014"
       gradientUnits="userSpaceOnUse"
       gradientTransform="translate(0,2)" /><linearGradient
       xlink:href="#linearGradient12640"
       id="linearGradient12642"
       x1="890.26758"
       y1="839.41797"
       x2="1917.248"
       y2="839.41797"
       gradientUnits="userSpaceOnUse"
       gradientTransform="translate(0,12)" /><linearGradient
       xlink:href="#linearGradient12648"
       id="linearGradient12650"
       x1="890.26758"
       y1="839.41797"
       x2="1917.248"
       y2="839.41797"
       gradientUnits="userSpaceOnUse"
       gradientTransform="translate(0,22)" /><linearGradient
       xlink:href="#linearGradient12656"
       id="linearGradient12658"
       x1="890.26758"
       y1="839.41797"
       x2="1917.248"
       y2="839.41797"
       gradientUnits="userSpaceOnUse" /><linearGradient
       xlink:href="#linearGradient13581"
       id="linearGradient13583"
       x1="0"
       y1="447.34152"
       x2="1920.584"
       y2="447.34152"
       gradientUnits="userSpaceOnUse" /><linearGradient
       xlink:href="#linearGradient13589"
       id="linearGradient13591"
       x1="0"
       y1="455.34348"
       x2="1920.5881"
       y2="455.34348"
       gradientUnits="userSpaceOnUse" /><linearGradient
       xlink:href="#linearGradient13597"
       id="linearGradient13599"
       x1="0"
       y1="459.34348"
       x2="1920.5881"
       y2="459.34348"
       gradientUnits="userSpaceOnUse" /><linearGradient
       xlink:href="#linearGradient2031"
       id="linearGradient13607"
       x1="0"
       y1="463.34348"
       x2="1920.5881"
       y2="463.34348"
       gradientUnits="userSpaceOnUse" /><linearGradient
       xlink:href="#linearGradient2025"
       id="linearGradient2000"
       gradientUnits="userSpaceOnUse"
       x1="0"
       y1="463.34348"
       x2="1920.5881"
       y2="463.34348"
       gradientTransform="translate(0,4)" /><linearGradient
       xlink:href="#linearGradient2019"
       id="linearGradient2004"
       gradientUnits="userSpaceOnUse"
       gradientTransform="translate(0,8)"
       x1="0"
       y1="463.34348"
       x2="1920.5881"
       y2="463.34348" /><linearGradient
       xlink:href="#linearGradient13605"
       id="linearGradient2008"
       gradientUnits="userSpaceOnUse"
       gradientTransform="translate(0,12)"
       x1="0"
       y1="463.34348"
       x2="1920.5881"
       y2="463.34348" /><linearGradient
       xlink:href="#linearGradient2857"
       id="linearGradient2831"
       gradientUnits="userSpaceOnUse"
       x1="-3.9511719"
       y1="863.08014"
       x2="1699.4023"
       y2="863.08014"
       gradientTransform="translate(0,10.852246)" /><linearGradient
       xlink:href="#linearGradient12241"
       id="linearGradient2833"
       gradientUnits="userSpaceOnUse"
       x1="-3.9511719"
       y1="863.08014"
       x2="1699.4023"
       y2="863.08014" /><linearGradient
       xlink:href="#linearGradient2851"
       id="linearGradient2835"
       gradientUnits="userSpaceOnUse"
       x1="-3.9511719"
       y1="863.08014"
       x2="1699.4023"
       y2="863.08014"
       gradientTransform="translate(0,14.85225)" /></defs><g
     id="layer5"
     style="display:inline"><rect
       style="display:inline;fill:#254151;fill-opacity:1;fill-rule:evenodd;stroke-width:1.00598"
       id="rect2322"
       width="1920"
       height="1200"
       x="0"
       y="0" /></g><g
     id="layer4"
     style="display:inline"
     transform="translate(0,2.8522464)"><g
       id="g5143"
       style="display:inline"
       transform="translate(0,2)"><g
         id="g5211"
         style="display:inline"><path
           id="path1670"
           style="display:inline;fill:url(#radialGradient3706);fill-opacity:1;stroke-width:7.281"
           d="M 1273.0977,36 C 1211.0632,97.784549 1135.2786,145.68642 1052.8535,175.21094 941.29452,215.17116 817.3073,222.29325 714.87109,281.86719 643.63241,323.29755 588.54233,386.93761 526.24023,440.88086 456.48214,501.27976 377.07451,549.88675 293.9707,589.98633 200.24498,635.21123 101.43334,669.88729 0,693.14844 V 1200 H 1920 V 36 Z"
           transform="translate(0,-2)" /><path
           id="path9149"
           style="display:inline;fill:#26485b;fill-opacity:0.91;stroke-width:7.281"
           d="M 1273.0977,30 C 1211.0633,91.784486 1135.2785,139.68645 1052.8535,169.21094 941.29464,209.17112 817.30914,216.29331 714.87305,275.86719 643.63443,317.29751 588.54227,380.93571 526.24023,434.87891 456.48221,495.27775 377.07443,543.88679 293.9707,583.98633 200.24508,629.21119 101.43324,663.88537 0,687.14648 v 6 C 101.43324,669.88537 200.24508,635.21119 293.9707,589.98633 377.07443,549.88679 456.48221,501.27775 526.24023,440.87891 588.54227,386.93571 643.63443,323.29751 714.87305,281.86719 817.30914,222.29331 941.29464,215.17112 1052.8535,175.21094 1135.2785,145.68645 1211.0633,97.784486 1273.0977,36 H 1920 v -6 z"
           transform="translate(0,-2)" /><path
           id="path9147"
           style="display:inline;fill:#26485b;fill-opacity:0.93;stroke-width:7.281"
           d="M 1273.0977,24.000648 C 1211.0633,85.785196 1135.2786,133.68707 1052.8535,163.21159 941.29451,203.17181 817.30925,210.2939 714.87305,269.86784 643.63436,311.2982 588.54233,374.93631 526.24023,428.87956 456.48214,489.27846 377.07451,537.8874 293.9707,577.98698 200.24498,623.21189 101.43334,657.88599 0,681.14713 v 6 C 101.43334,663.88599 200.24498,629.21189 293.9707,583.98698 377.07451,543.8874 456.48214,495.27846 526.24023,434.87956 588.54233,380.93631 643.63436,317.2982 714.87305,275.86784 817.30925,216.2939 941.29451,209.17181 1052.8535,169.21159 1135.2786,139.68707 1211.0633,91.785196 1273.0977,30.000648 H 1920 v -6 z"
           transform="translate(0,-2)" /><path
           id="path9145"
           style="display:inline;fill:#26485b;fill-opacity:0.88;stroke-width:7.281"
           d="M 1273.0977,18 C 1211.0633,79.784486 1135.2785,127.68645 1052.8535,157.21094 941.29464,197.17112 817.30914,204.29331 714.87305,263.86719 643.63443,305.29751 588.54227,368.93571 526.24023,422.87891 456.48221,483.27775 377.07443,531.88679 293.9707,571.98633 200.24508,617.21119 101.43324,651.88537 0,675.14648 v 6 C 101.43324,657.88537 200.24508,623.21119 293.9707,577.98633 377.07443,537.88679 456.48221,489.27775 526.24023,428.87891 588.54227,374.93571 643.63443,311.29751 714.87305,269.86719 817.30914,210.29331 941.29464,203.17112 1052.8535,163.21094 1135.2785,133.68645 1211.0633,85.784486 1273.0977,24 H 1920 v -6 z"
           transform="translate(0,-2)" /><path
           id="path9143"
           style="display:inline;fill:#26485b;fill-opacity:0.82;stroke-width:7.281"
           d="M 1273.0977,12 C 1211.0633,73.784486 1135.2785,121.68645 1052.8535,151.21094 941.29464,191.17112 817.30914,198.29331 714.87305,257.86719 643.63443,299.29751 588.54227,362.93571 526.24023,416.87891 456.48221,477.27775 377.07443,525.88679 293.9707,565.98633 200.24508,611.21119 101.43324,645.88537 0,669.14648 v 6 C 101.43324,651.88537 200.24508,617.21119 293.9707,571.98633 377.07443,531.88679 456.48221,483.27775 526.24023,422.87891 588.54227,368.93571 643.63443,305.29751 714.87305,263.86719 817.30914,204.29331 941.29464,197.17112 1052.8535,157.21094 1135.2785,127.68645 1211.0633,79.784486 1273.0977,18 H 1920 v -6 z"
           transform="translate(0,-2)" /><path
           id="path9119"
           style="display:inline;fill:#26485b;fill-opacity:0.78;stroke-width:7.281"
           d="M 1273.0977,6 C 1211.0633,67.784486 1135.2785,115.68645 1052.8535,145.21094 941.29464,185.17112 817.30914,192.29331 714.87305,251.86719 643.63443,293.29751 588.54227,356.93571 526.24023,410.87891 456.48221,471.27775 377.07443,519.88679 293.9707,559.98633 200.24508,605.21119 101.43324,639.88537 0,663.14648 v 6 C 101.43324,645.88537 200.24508,611.21119 293.9707,565.98633 377.07443,525.88679 456.48221,477.27775 526.24023,416.87891 588.54227,362.93571 643.63443,299.29751 714.87305,257.86719 817.30914,198.29331 941.29464,191.17112 1052.8535,151.21094 1135.2785,121.68645 1211.0633,73.784486 1273.0977,12 H 1920 V 6 Z"
           transform="translate(0,-2)" /><path
           id="path6398"
           style="display:inline;fill:#26485b;fill-opacity:0.7;stroke-width:7.281"
           d="M 1273.0977,0 C 1211.0633,61.784486 1135.2785,109.68645 1052.8535,139.21094 941.29464,179.17112 817.30914,186.29331 714.87305,245.86719 643.63443,287.29751 588.54227,350.93571 526.24023,404.87891 456.48221,465.27775 377.07443,513.88679 293.9707,553.98633 200.24508,599.21119 101.43324,633.88537 0,657.14648 v 6 C 101.43324,639.88537 200.24508,605.21119 293.9707,559.98633 377.07443,519.88679 456.48221,471.27775 526.24023,410.87891 588.54227,356.93571 643.63443,293.29751 714.87305,251.86719 817.30914,192.29331 941.29464,185.17112 1052.8535,145.21094 1135.2785,115.68645 1211.0633,67.784486 1273.0977,6 h 646.8378 V 0 Z"
           transform="translate(0,-2)" /><path
           id="path6385"
           style="display:inline;fill:#26475b;fill-opacity:0.396401;stroke-width:7.281"
           d="M 1260.3594,0 C 1200.7779,55.921734 1129.7859,99.653897 1052.8535,127.21094 941.29467,167.17112 817.30914,174.29331 714.87305,233.86719 643.63443,275.29751 588.54227,338.93571 526.24023,392.87891 456.48221,453.27775 377.07443,501.88679 293.9707,541.98633 200.24508,587.21119 101.43324,621.88537 0,645.14648 v 12 C 101.43324,633.88537 200.24508,599.21119 293.9707,553.98633 377.07443,513.88679 456.48221,465.27775 526.24023,404.87891 588.54227,350.93571 643.63443,287.29751 714.87305,245.86719 817.30914,186.29331 941.29467,179.17112 1052.8535,139.21094 1135.2785,109.68645 1211.0633,61.784478 1273.0977,0 Z"
           transform="translate(0,-2)" /><path
           id="path5154"
           style="display:inline;fill:url(#radialGradient5207);fill-opacity:1;stroke-width:9.18804"
           d="m 1273.0977,0 c -62.0345,61.784362 -137.8194,109.68651 -220.2442,139.21094 -0.1473,0.0528 -0.2999,0.0919 -0.4473,0.14453 a 339.79221,405.83688 0 0 0 -57.3144,121.86328 c 24.9444,5.09242 49.2933,12.37175 72.4512,23.12109 42.9381,19.93103 79.8218,50.60957 116.2636,80.82422 36.4421,30.21465 73.5566,60.67319 116.75,80.04492 1.0936,0.49044 2.2236,0.87432 3.3223,1.34961 91.0186,-44.42336 173.4176,-107.18264 267.9727,-144.01953 21.8909,-8.52834 44.3624,-15.49865 67.1836,-21.04101 A 339.79221,405.83688 0 0 0 1385.9941,0 Z" /></g><g
         id="g5149"
         style="display:inline"><path
           id="path1928"
           style="display:inline;fill:url(#radialGradient3716);fill-opacity:1;stroke-width:7.281"
           d="m 371.84961,162.38672 c -61.38644,0.24925 -122.00042,19.1719 -182.22852,33.31055 C 127.31412,210.32392 63.838575,219.97567 0,224.5293 V 1198 H 1920 V 787.99609 c -59.2567,-28.81144 -114.3945,-66.08136 -163.1875,-110.36132 -48.3345,-43.86382 -91.5779,-95.33488 -149.6016,-125.22657 -46.989,-24.2071 -100.345,-32.44954 -152.7109,-39.64453 -52.3658,-7.195 -105.7138,-13.92437 -153.9434,-35.55469 -43.1935,-19.37175 -80.3079,-49.83024 -116.75,-80.04492 -36.4419,-30.21468 -73.3254,-60.89317 -116.2636,-80.82422 -59.1057,-27.43551 -125.83679,-32.7696 -190.96878,-34.76953 -65.132,-1.99994 -131.1755,-1.1914 -194.2207,-17.66797 -48.78618,-12.75001 -94.26008,-35.47652 -140.24219,-56.17187 -45.98213,-20.69536 -93.68396,-39.70288 -143.9043,-44.23828 -8.80209,-0.79492 -17.58793,-1.14108 -26.35742,-1.10547 z" /><path
           id="path2006"
           style="display:inline;opacity:1;fill:url(#linearGradient2008);fill-opacity:1;stroke-width:7.281"
           d="m 371.84961,160.38672 c -61.38644,0.24925 -122.00042,19.1719 -182.22852,33.31055 C 127.31412,208.32392 63.838575,217.97567 0,222.5293 v 4 c 63.838575,-4.55363 127.31412,-14.20538 189.62109,-28.83203 68.83212,-16.15846 138.16922,-38.56444 208.58594,-32.20508 50.22035,4.5354 97.92217,23.54293 143.9043,44.23828 45.98211,20.69535 91.45601,43.42186 140.24219,56.17187 63.04521,16.47657 129.0887,15.66804 194.2207,17.66797 65.13199,1.99994 131.86308,7.33402 190.96878,34.76953 42.9383,19.93105 79.8217,50.60954 116.2636,80.82422 36.4421,30.21468 73.5565,60.67317 116.75,80.04492 48.2296,21.63032 101.5775,28.35969 153.9434,35.55469 52.3659,7.195 105.7219,15.43743 152.7109,39.64453 58.0237,29.89169 101.2672,81.36275 149.6016,125.22657 48.793,44.27996 103.9308,81.54988 163.1875,110.36132 v -4.0039 c -59.259,-28.81113 -114.3958,-66.07864 -163.1875,-110.35742 -48.3344,-43.86382 -91.5779,-95.33488 -149.6016,-125.22657 -46.989,-24.2071 -100.345,-32.44953 -152.7109,-39.64453 -52.3659,-7.195 -105.7138,-13.92437 -153.9434,-35.55469 -43.1935,-19.37175 -80.3079,-49.83024 -116.75,-80.04492 -36.4419,-30.21468 -73.3253,-60.89317 -116.2636,-80.82422 -59.1057,-27.43551 -125.83679,-32.76959 -190.96878,-34.76953 -65.132,-1.99993 -131.17549,-1.1914 -194.2207,-17.66797 -48.78618,-12.75001 -94.26008,-35.47652 -140.24219,-56.17187 -45.98213,-20.69535 -93.68395,-39.70288 -143.9043,-44.23828 -8.80209,-0.79492 -17.58793,-1.14108 -26.35742,-1.10547 z"
           transform="translate(0,-2)" /><path
           id="path2002"
           style="display:inline;opacity:1;fill:url(#linearGradient2004);fill-opacity:1;stroke-width:7.281"
           d="m 371.84961,156.38672 c -61.38644,0.24925 -122.00042,19.1719 -182.22852,33.31055 C 127.31412,204.32392 63.838575,213.97567 0,218.5293 v 4 c 63.838575,-4.55363 127.31412,-14.20538 189.62109,-28.83203 68.83212,-16.15846 138.16922,-38.56444 208.58594,-32.20508 50.22035,4.5354 97.92217,23.54293 143.9043,44.23828 45.98211,20.69535 91.45601,43.42186 140.24219,56.17187 63.04521,16.47657 129.0887,15.66804 194.2207,17.66797 65.13199,1.99994 131.86308,7.33402 190.96878,34.76953 42.9383,19.93105 79.8217,50.60954 116.2636,80.82422 36.4421,30.21468 73.5565,60.67317 116.75,80.04492 48.2296,21.63032 101.5775,28.35969 153.9434,35.55469 52.3659,7.195 105.7219,15.43743 152.7109,39.64453 58.0237,29.89169 101.2672,81.36275 149.6016,125.22657 48.793,44.27996 103.9308,81.54988 163.1875,110.36132 v -4.0039 c -59.259,-28.81113 -114.3958,-66.07864 -163.1875,-110.35742 -48.3344,-43.86382 -91.5779,-95.33488 -149.6016,-125.22657 -46.989,-24.2071 -100.345,-32.44953 -152.7109,-39.64453 -52.3659,-7.195 -105.7138,-13.92437 -153.9434,-35.55469 -43.1935,-19.37175 -80.3079,-49.83024 -116.75,-80.04492 -36.4419,-30.21468 -73.3253,-60.89317 -116.2636,-80.82422 -59.1057,-27.43551 -125.83679,-32.76959 -190.96878,-34.76953 -65.132,-1.99993 -131.17549,-1.1914 -194.2207,-17.66797 -48.78618,-12.75001 -94.26008,-35.47652 -140.24219,-56.17187 -45.98213,-20.69535 -93.68395,-39.70288 -143.9043,-44.23828 -8.80209,-0.79492 -17.58793,-1.14108 -26.35742,-1.10547 z"
           transform="translate(0,-2)" /><path
           id="path1998"
           style="display:inline;opacity:1;fill:url(#linearGradient2000);fill-opacity:1;stroke-width:7.281"
           d="m 371.84961,152.38672 c -61.38644,0.24925 -122.00042,19.1719 -182.22852,33.31055 C 127.31412,200.32392 63.838575,209.97567 0,214.5293 v 4 c 63.838575,-4.55363 127.31412,-14.20538 189.62109,-28.83203 68.83212,-16.15846 138.16922,-38.56444 208.58594,-32.20508 50.22035,4.5354 97.92217,23.54293 143.9043,44.23828 45.98211,20.69535 91.45601,43.42186 140.24219,56.17187 63.04521,16.47657 129.0887,15.66804 194.2207,17.66797 65.13199,1.99994 131.86308,7.33402 190.96878,34.76953 42.9383,19.93105 79.8217,50.60954 116.2636,80.82422 36.4421,30.21468 73.5565,60.67317 116.75,80.04492 48.2296,21.63032 101.5775,28.35969 153.9434,35.55469 52.3659,7.195 105.7219,15.43743 152.7109,39.64453 58.0237,29.89169 101.2672,81.36275 149.6016,125.22657 48.793,44.27996 103.9308,81.54988 163.1875,110.36132 v -4.0039 c -59.259,-28.81113 -114.3958,-66.07864 -163.1875,-110.35742 -48.3344,-43.86382 -91.5779,-95.33488 -149.6016,-125.22657 -46.989,-24.2071 -100.345,-32.44953 -152.7109,-39.64453 -52.3659,-7.195 -105.7138,-13.92437 -153.9434,-35.55469 -43.1935,-19.37175 -80.3079,-49.83024 -116.75,-80.04492 -36.4419,-30.21468 -73.3253,-60.89317 -116.2636,-80.82422 -59.1057,-27.43551 -125.83679,-32.76959 -190.96878,-34.76953 -65.132,-1.99993 -131.17549,-1.1914 -194.2207,-17.66797 -48.78618,-12.75001 -94.26008,-35.47652 -140.24219,-56.17187 -45.98213,-20.69535 -93.68395,-39.70288 -143.9043,-44.23828 -8.80209,-0.79492 -17.58793,-1.14108 -26.35742,-1.10547 z"
           transform="translate(0,-2)" /><path
           id="path9404"
           style="display:inline;opacity:1;fill:url(#linearGradient13607);fill-opacity:1;stroke-width:7.281"
           d="m 371.84961,148.38672 c -61.38644,0.24925 -122.00042,19.1719 -182.22852,33.31055 C 127.31412,196.32392 63.838575,205.97567 0,210.5293 v 4 c 63.838575,-4.55363 127.31412,-14.20538 189.62109,-28.83203 68.83212,-16.15846 138.16922,-38.56444 208.58594,-32.20508 50.22035,4.5354 97.92217,23.54293 143.9043,44.23828 45.98211,20.69535 91.45601,43.42186 140.24219,56.17187 63.04521,16.47657 129.0887,15.66804 194.2207,17.66797 65.13199,1.99994 131.86308,7.33402 190.96878,34.76953 42.9383,19.93105 79.8217,50.60954 116.2636,80.82422 36.4421,30.21468 73.5565,60.67317 116.75,80.04492 48.2296,21.63032 101.5775,28.35969 153.9434,35.55469 52.3659,7.195 105.7219,15.43743 152.7109,39.64453 58.0237,29.89169 101.2672,81.36275 149.6016,125.22657 48.793,44.27996 103.9308,81.54988 163.1875,110.36132 v -4.0039 c -59.259,-28.81113 -114.3958,-66.07864 -163.1875,-110.35742 -48.3344,-43.86382 -91.5779,-95.33488 -149.6016,-125.22657 -46.989,-24.2071 -100.345,-32.44953 -152.7109,-39.64453 -52.3659,-7.195 -105.7138,-13.92437 -153.9434,-35.55469 -43.1935,-19.37175 -80.3079,-49.83024 -116.75,-80.04492 -36.4419,-30.21468 -73.3253,-60.89317 -116.2636,-80.82422 -59.1057,-27.43551 -125.83679,-32.76959 -190.96878,-34.76953 -65.132,-1.99993 -131.17549,-1.1914 -194.2207,-17.66797 -48.78618,-12.75001 -94.26008,-35.47652 -140.24219,-56.17187 -45.98213,-20.69535 -93.68395,-39.70288 -143.9043,-44.23828 -8.80209,-0.79492 -17.58793,-1.14108 -26.35742,-1.10547 z"
           transform="translate(0,-2)" /><path
           id="path9402"
           style="display:inline;fill:url(#linearGradient13599);fill-opacity:1;stroke-width:7.281"
           d="m 371.84961,144.38672 c -61.38644,0.24925 -122.00042,19.1719 -182.22852,33.31055 C 127.31412,192.32392 63.838575,201.97567 0,206.5293 v 4 c 63.838575,-4.55363 127.31412,-14.20538 189.62109,-28.83203 68.83212,-16.15846 138.16922,-38.56444 208.58594,-32.20508 50.22035,4.5354 97.92217,23.54293 143.9043,44.23828 45.98211,20.69535 91.45601,43.42186 140.24219,56.17187 63.04521,16.47657 129.0887,15.66804 194.2207,17.66797 65.13199,1.99994 131.86308,7.33402 190.96878,34.76953 42.9383,19.93105 79.8217,50.60954 116.2636,80.82422 36.4421,30.21468 73.5565,60.67317 116.75,80.04492 48.2296,21.63032 101.5775,28.35969 153.9434,35.55469 52.3659,7.195 105.7219,15.43743 152.7109,39.64453 58.0237,29.89169 101.2672,81.36275 149.6016,125.22657 48.793,44.27996 103.9308,81.54988 163.1875,110.36132 v -4.0039 c -59.259,-28.81113 -114.3958,-66.07864 -163.1875,-110.35742 -48.3344,-43.86382 -91.5779,-95.33488 -149.6016,-125.22657 -46.989,-24.2071 -100.345,-32.44953 -152.7109,-39.64453 -52.3659,-7.195 -105.7138,-13.92437 -153.9434,-35.55469 -43.1935,-19.37175 -80.3079,-49.83024 -116.75,-80.04492 -36.4419,-30.21468 -73.3253,-60.89317 -116.2636,-80.82422 -59.1057,-27.43551 -125.83679,-32.76959 -190.96878,-34.76953 -65.132,-1.99993 -131.17549,-1.1914 -194.2207,-17.66797 -48.78618,-12.75001 -94.26008,-35.47652 -140.24219,-56.17187 -45.98213,-20.69535 -93.68395,-39.70288 -143.9043,-44.23828 -8.80209,-0.79492 -17.58793,-1.14108 -26.35742,-1.10547 z"
           transform="translate(0,-2)" /><path
           id="path9181"
           style="display:inline;fill:url(#linearGradient13591);fill-opacity:1;stroke-width:7.281"
           d="m 371.84961,140.38672 c -61.38644,0.24925 -122.00042,19.1719 -182.22852,33.31055 C 127.31412,188.32392 63.838575,197.97567 0,202.5293 v 4 c 63.838575,-4.55363 127.31412,-14.20538 189.62109,-28.83203 68.83212,-16.15846 138.16922,-38.56444 208.58594,-32.20508 50.22035,4.5354 97.92217,23.54293 143.9043,44.23828 45.98211,20.69535 91.45601,43.42186 140.24219,56.17187 63.04521,16.47657 129.0887,15.66804 194.2207,17.66797 65.13199,1.99994 131.86308,7.33402 190.96878,34.76953 42.9383,19.93105 79.8217,50.60954 116.2636,80.82422 36.4421,30.21468 73.5565,60.67317 116.75,80.04492 48.2296,21.63032 101.5775,28.35969 153.9434,35.55469 52.3659,7.195 105.7219,15.43743 152.7109,39.64453 58.0237,29.89169 101.2672,81.36275 149.6016,125.22657 48.793,44.27996 103.9308,81.54988 163.1875,110.36132 v -4.0039 c -59.259,-28.81113 -114.3958,-66.07864 -163.1875,-110.35742 -48.3344,-43.86382 -91.5779,-95.33488 -149.6016,-125.22657 -46.989,-24.2071 -100.345,-32.44953 -152.7109,-39.64453 -52.3659,-7.195 -105.7138,-13.92437 -153.9434,-35.55469 -43.1935,-19.37175 -80.3079,-49.83024 -116.75,-80.04492 -36.4419,-30.21468 -73.3253,-60.89317 -116.2636,-80.82422 -59.1057,-27.43551 -125.83679,-32.76959 -190.96878,-34.76953 -65.132,-1.99993 -131.17549,-1.1914 -194.2207,-17.66797 -48.78618,-12.75001 -94.26008,-35.47652 -140.24219,-56.17187 -45.98213,-20.69535 -93.68395,-39.70288 -143.9043,-44.23828 -8.80209,-0.79492 -17.58793,-1.14108 -26.35742,-1.10547 z"
           transform="translate(0,-2)" /><path
           id="path9168"
           style="display:inline;fill:url(#linearGradient13583);fill-opacity:1;stroke-width:7.281"
           d="m 371.84961,130.38672 c -61.38644,0.24925 -122.00042,19.1719 -182.22852,33.31055 C 127.31412,178.32392 63.838575,187.97567 0,192.5293 v 8 c 63.838575,-4.55363 127.31412,-14.20538 189.62109,-28.83203 68.83212,-16.15846 138.16922,-38.56444 208.58594,-32.20508 50.22035,4.5354 97.92217,23.54293 143.9043,44.23828 45.98211,20.69535 91.45601,43.42186 140.24219,56.17187 63.04521,16.47657 129.0887,15.66804 194.2207,17.66797 65.13199,1.99994 131.86308,7.33402 190.96878,34.76953 42.9383,19.93105 79.8217,50.60954 116.2636,80.82422 36.4421,30.21468 73.5565,60.67317 116.75,80.04492 48.2296,21.63032 101.5775,28.35969 153.9434,35.55469 52.3659,7.195 105.7219,15.43743 152.7109,39.64453 58.0237,29.89169 101.2672,81.36275 149.6016,125.22657 48.7928,44.27975 103.9311,81.54799 163.1875,110.35937 v -7.99805 c -59.2569,-28.81144 -114.3945,-66.08136 -163.1875,-110.36132 -48.3344,-43.86382 -91.5779,-95.33488 -149.6016,-125.22657 -46.989,-24.2071 -100.345,-32.44953 -152.7109,-39.64453 -52.3659,-7.195 -105.7138,-13.92437 -153.9434,-35.55469 -43.1935,-19.37175 -80.3079,-49.83024 -116.75,-80.04492 -36.4419,-30.21468 -73.3253,-60.89317 -116.2636,-80.82422 -59.1057,-27.43551 -125.83679,-32.76959 -190.96878,-34.76953 -65.132,-1.99993 -131.17549,-1.1914 -194.2207,-17.66797 -48.78618,-12.75001 -94.26008,-35.47652 -140.24219,-56.17187 -45.98213,-20.69535 -93.68395,-39.70288 -143.9043,-44.23828 -8.80209,-0.79492 -17.58793,-1.14108 -26.35742,-1.10547 z" /><path
           id="path4989"
           style="display:inline;fill:url(#radialGradient4992);fill-opacity:1;stroke-width:9.18804"
           d="m 854.18359,248.98242 a 339.79221,770.05487 0 0 0 54.71094,293.65235 c 31.66307,-7.44956 63.92244,-13.07788 95.83397,-18.20118 85.8108,-13.77663 172.8431,-25.80855 253.6973,-57.68164 15.4321,-6.08342 30.4883,-12.96617 45.3672,-20.22656 -1.0704,-0.46346 -2.1709,-0.83857 -3.2364,-1.31641 -43.1935,-19.37175 -80.3079,-49.83024 -116.75,-80.04492 -36.4419,-30.21468 -73.3254,-60.89317 -116.2636,-80.82422 -59.1057,-27.43551 -125.83679,-32.7696 -190.96878,-34.76953 -7.44677,-0.22866 -14.92586,-0.40264 -22.39063,-0.58789 z" /></g><g
         id="g4893"
         style="display:inline"><path
           id="path1877"
           style="display:inline;fill:url(#radialGradient3726);fill-opacity:1;stroke-width:7.34984"
           d="m 1787.9922,292.47852 c -73.5033,-2.75398 -147.5913,9.35501 -216.1406,36.06054 -110.0313,42.86614 -203.5653,120.90613 -313.4239,164.21289 -80.8542,31.87309 -167.8864,43.90305 -253.6972,57.67969 -88.507,14.2095 -179.84435,31.81736 -253.0098,83.60742 -43.14529,30.54034 -77.72798,71.50661 -110.17578,113.23633 -32.44781,41.72973 -63.4659,84.91939 -101.40234,121.73047 C 469.41512,937.63524 378.34526,980.70204 298.00781,1037.7832 233.88152,1083.346 176.36607,1138.1818 127.7207,1200 h 1792.2168 l -1.5918,-886.45508 c -42.36,-12.41036 -86.2516,-19.41402 -130.3535,-21.0664 z"
           transform="translate(0,-2)" /><path
           id="path10895"
           style="display:inline;fill:url(#linearGradient10898);fill-opacity:1;stroke-width:7.34984"
           d="m 1760.4102,280.14453 c -64.3591,0.83753 -128.5781,13.02723 -188.5586,36.39453 -110.0312,42.8661 -203.5673,120.90617 -313.4258,164.21289 -80.8541,31.87306 -167.8866,43.90503 -253.6973,57.68164 -88.50685,14.20949 -179.84437,31.81546 -253.00975,83.60547 -43.14526,30.54031 -77.72801,71.50665 -110.17578,113.23633 -32.44777,41.72968 -63.46593,84.91943 -101.40235,121.73047 -70.72737,68.6293 -161.79739,111.69815 -242.13476,168.77934 -68.2139,48.4671 -128.82615,107.5175 -179.35742,174.2148 h 9.45117 c 48.59828,-61.7554 105.84348,-116.6971 169.90625,-162.2148 80.33737,-57.08119 171.40739,-100.15004 242.13476,-168.77934 37.93642,-36.81104 68.95458,-80.00079 101.40235,-121.73047 32.44777,-41.72968 67.03052,-82.69602 110.17578,-113.23633 73.16538,-51.79001 164.5029,-69.39598 253.00975,-83.60547 85.8107,-13.77661 172.8432,-25.80858 253.6973,-57.68164 109.8585,-43.30672 203.3946,-121.34679 313.4258,-164.21289 109.6787,-42.72879 233.5341,-48.08841 346.4941,-14.99414 L 1919.9355,1200 h 0.022 l -1.6113,-898.45508 c -42.36,-12.41035 -86.2535,-19.41207 -130.3555,-21.06445 -9.1879,-0.34425 -18.3859,-0.45559 -27.58,-0.33594 z"
           transform="translate(0,-2)" /><path
           id="path9425"
           style="display:inline;fill:url(#linearGradient10893);fill-opacity:1;stroke-width:7.34984"
           d="m 1760.4102,266.14453 c -64.3591,0.83753 -128.5781,13.02723 -188.5586,36.39453 -110.0312,42.8661 -203.5673,120.90617 -313.4258,164.21289 -80.8541,31.87306 -167.8866,43.90503 -253.6973,57.68164 -88.50685,14.20949 -179.84437,31.81546 -253.00975,83.60547 -43.14526,30.54031 -77.72801,71.50665 -110.17578,113.23633 C 609.0952,763.00507 578.07704,806.19482 540.14062,843.00586 469.41325,911.63516 378.34323,954.70401 298.00586,1011.7852 225.70356,1063.1571 161.8254,1126.3309 109.57422,1198 h 9.12695 c 50.5248,-66.6886 111.09968,-125.754 179.30469,-174.2148 80.33737,-57.08119 171.40739,-100.15004 242.13476,-168.77934 37.93642,-36.81104 68.95458,-80.00079 101.40235,-121.73047 32.44777,-41.72968 67.03052,-82.69602 110.17578,-113.23633 73.16538,-51.79001 164.5029,-69.39598 253.00975,-83.60547 85.8107,-13.77661 172.8432,-25.80858 253.6973,-57.68164 109.8585,-43.30672 203.3946,-121.34679 313.4258,-164.21289 109.3309,-42.59333 232.7377,-48.00999 345.4082,-15.26367 v -12.01172 c -42.0267,-12.21429 -85.5413,-19.14483 -129.2696,-20.7832 -9.1879,-0.34425 -18.3859,-0.45559 -27.58,-0.33594 z" /><path
           id="path4705"
           style="display:inline;fill:url(#radialGradient4889);fill-opacity:1;stroke-width:9.88344"
           d="m 1190.1828,-1152.6403 c -22.2601,104.4544 -21.3656,211.45982 -50.0182,315.23861 -23.7762,86.11766 -67.1873,167.17978 -108.4584,248.10312 -14.5593,28.54759 -28.8835,57.61916 -41.71337,87.07237 25.88717,63.32532 62.27687,116.21305 105.28417,156.33883 2.6463,-3.74401 5.4058,-7.42608 7.9981,-11.19319 26.7653,-38.89483 51.4366,-79.23632 81.2326,-116.01758 61.8576,-76.35881 145.5404,-135.69043 236.4913,-167.28 23.3701,-8.117 47.0461,-14.31174 70.8801,-19.54729 -5.6467,-31.99364 -15.8268,-62.81964 -25.5848,-93.51105 -12.95,-40.73046 -25.3404,-82.41856 -25.4015,-126.42354 -0.056,-40.15422 10.1993,-80.76423 23.7455,-120.01413 10.5607,-30.59935 23.1035,-60.65915 34.7145,-90.97545 -58.2007,-54.2585 -128.0806,-84.2572 -200.4026,-84.7327 -36.9539,0.048 -73.6676,7.7919 -108.7674,22.942 z"
           transform="matrix(0.51950105,0.85446981,-0.79544747,0.60602254,0,0)" /></g><g
         id="g4703"
         style="display:inline"><path
           id="path1958"
           style="display:inline;fill:url(#radialGradient3736);fill-opacity:1;stroke-width:6.93461"
           d="M 0.03125,529.3418 0,534.81055 V 1200 h 1627.918 c -74.3097,-40.2368 -142.4227,-91.9151 -200.834,-152.9883 -60.6368,-63.40011 -111.2902,-136.85546 -179.4863,-192.04295 -72.3771,-58.57085 -163.0455,-94.11901 -255.91997,-100.69922 -44.73668,-3.16963 -89.64297,0.19737 -134.48632,0.89844 -44.84336,0.70108 -90.37079,-1.37609 -133.09961,-15.00195 -45.35822,-14.46435 -85.59818,-41.27731 -125.13672,-67.79688 -39.53855,-26.51957 -79.71419,-53.40566 -125.01563,-68.04687 -48.60781,-15.70982 -100.69432,-16.52115 -151.74218,-14.61524 -51.04788,1.9059 -102.31202,6.37466 -153.08008,0.70703 C 109.00796,583.70361 50.554488,562.59164 0.03125,529.3418 Z"
           transform="translate(0,-4.8522464)" /><path
           id="path2827"
           style="display:inline;fill:url(#linearGradient2835);fill-opacity:1;stroke-width:6.93461"
           d="M 0.03125,525.34248 0,530.81123 v 4 l 0.03125,-5.46875 c 50.523238,33.24985 108.97671,54.36181 169.08594,61.07227 50.76806,5.66763 102.0322,1.19887 153.08008,-0.70703 51.04786,-1.9059 103.13437,-1.09458 151.74218,14.61523 45.30144,14.64122 85.47708,41.5273 125.01563,68.04688 39.53855,26.51957 79.7785,53.33253 125.13672,67.79687 42.72883,13.62587 88.25625,15.70303 133.09961,15.00196 44.84334,-0.70108 89.74964,-4.06807 134.48632,-0.89844 92.87447,6.58022 183.54287,42.12836 255.91997,100.69922 68.1961,55.18749 118.8495,128.64289 179.4863,192.04306 65.9088,68.9123 144.1693,125.842 229.7715,167.8398 h 7.8496 c -88.6876,-42.3614 -169.6842,-100.8071 -237.6211,-171.8398 -60.6368,-63.40017 -111.2902,-136.85557 -179.4863,-192.04306 -72.3771,-58.57086 -163.0455,-94.119 -255.91997,-100.69922 -44.73668,-3.16963 -89.64298,0.19736 -134.48632,0.89844 -44.84336,0.70107 -90.37078,-1.37609 -133.09961,-15.00196 -45.35822,-14.46434 -85.59817,-41.2773 -125.13672,-67.79687 -39.53855,-26.51958 -79.71419,-53.40566 -125.01563,-68.04688 -48.60781,-15.70981 -100.69432,-16.52113 -151.74218,-14.61523 -51.04788,1.9059 -102.31202,6.37466 -153.08008,0.70703 C 109.00796,579.70429 50.554488,558.59233 0.03125,525.34248 Z"
           transform="translate(0,-4.8522464)" /><path
           id="path12215"
           style="display:inline;fill:url(#linearGradient2831);fill-opacity:1;stroke-width:6.93461"
           d="M 0.03125,521.34248 0,526.81123 v 4 l 0.03125,-5.46875 c 50.523238,33.24985 108.97671,54.36181 169.08594,61.07227 50.76806,5.66763 102.0322,1.19887 153.08008,-0.70703 51.04786,-1.9059 103.13437,-1.09458 151.74218,14.61523 45.30144,14.64122 85.47708,41.5273 125.01563,68.04688 39.53855,26.51957 79.7785,53.33253 125.13672,67.79687 42.72883,13.62587 88.25625,15.70303 133.09961,15.00196 44.84334,-0.70108 89.74964,-4.06807 134.48632,-0.89844 92.87447,6.58022 183.54287,42.12836 255.91997,100.69922 68.1961,55.18749 118.8495,128.64289 179.4863,192.04296 65.9088,68.9124 144.1693,125.842 229.7715,167.8398 h 7.8496 c -88.6876,-42.3614 -169.6842,-100.807 -237.6211,-171.8398 -60.6368,-63.40007 -111.2902,-136.85547 -179.4863,-192.04296 -72.3771,-58.57086 -163.0455,-94.119 -255.91997,-100.69922 -44.73668,-3.16963 -89.64298,0.19736 -134.48632,0.89844 -44.84336,0.70107 -90.37078,-1.37609 -133.09961,-15.00196 -45.35822,-14.46434 -85.59817,-41.2773 -125.13672,-67.79687 -39.53855,-26.51958 -79.71419,-53.40566 -125.01563,-68.04688 -48.60781,-15.70981 -100.69432,-16.52113 -151.74218,-14.61523 -51.04788,1.9059 -102.31202,6.37466 -153.08008,0.70703 C 109.00796,575.70429 50.554488,554.59233 0.03125,521.34248 Z"
           transform="translate(0,-4.8522464)" /><path
           id="path2829"
           style="display:inline;fill:url(#linearGradient12243);fill-opacity:1;stroke-width:6.93461"
           d="M 0.03125,512.49023 0,517.95898 v 4 l 0.03125,-5.46875 c 50.523238,33.24985 108.97671,54.36181 169.08594,61.07227 50.76806,5.66763 102.0322,1.19887 153.08008,-0.70703 51.04786,-1.9059 103.13437,-1.09458 151.74218,14.61523 45.30144,14.64122 85.47708,41.5273 125.01563,68.04688 39.53855,26.51957 79.7785,53.33253 125.13672,67.79687 42.72883,13.62587 88.25625,15.70303 133.09961,15.00196 44.84334,-0.70108 89.74964,-4.06807 134.48632,-0.89844 92.87447,6.58022 183.54287,42.12836 255.91997,100.69922 68.1961,55.18749 118.8495,128.64289 179.4863,192.04301 65.9088,68.9124 144.1693,125.842 229.7715,167.8398 h 7.8496 c -88.6876,-42.3614 -169.6842,-100.807 -237.6211,-171.8398 -60.6368,-63.40012 -111.2902,-136.85552 -179.4863,-192.04301 -72.3771,-58.57086 -163.0455,-94.119 -255.91997,-100.69922 -44.73668,-3.16963 -89.64298,0.19736 -134.48632,0.89844 -44.84336,0.70107 -90.37078,-1.37609 -133.09961,-15.00196 C 678.73358,708.85011 638.49363,682.03715 598.95508,655.51758 559.41653,628.998 519.24089,602.11192 473.93945,587.4707 425.33164,571.76089 373.24513,570.94957 322.19727,572.85547 271.14939,574.76137 219.88525,579.23013 169.11719,573.5625 109.00796,566.85204 50.554488,545.74008 0.03125,512.49023 Z" /><path
           id="path2825"
           style="display:inline;fill:url(#linearGradient2833);fill-opacity:1;stroke-width:6.93461"
           d="M 0.03125,510.49023 0,515.95898 v 4 l 0.03125,-5.46875 c 50.523238,33.24985 108.97671,54.36181 169.08594,61.07227 50.76806,5.66763 102.0322,1.19887 153.08008,-0.70703 51.04786,-1.9059 103.13437,-1.09458 151.74218,14.61523 45.30144,14.64122 85.47708,41.5273 125.01563,68.04688 39.53855,26.51957 79.7785,53.33253 125.13672,67.79687 42.72883,13.62587 88.25625,15.70303 133.09961,15.00196 44.84334,-0.70108 89.74964,-4.06807 134.48632,-0.89844 92.87447,6.58022 183.54287,42.12836 255.91997,100.69922 68.1961,55.18749 118.8495,128.64289 179.4863,192.04301 65.9088,68.9124 144.1693,125.842 229.7715,167.8398 h 7.8496 c -88.6876,-42.3614 -169.6842,-100.807 -237.6211,-171.8398 -60.6368,-63.40012 -111.2902,-136.85552 -179.4863,-192.04301 -72.3771,-58.57086 -163.0455,-94.119 -255.91997,-100.69922 -44.73668,-3.16963 -89.64298,0.19736 -134.48632,0.89844 -44.84336,0.70107 -90.37078,-1.37609 -133.09961,-15.00196 C 678.73358,706.85011 638.49363,680.03715 598.95508,653.51758 559.41653,626.998 519.24089,600.11192 473.93945,585.4707 425.33164,569.76089 373.24513,568.94957 322.19727,570.85547 271.14939,572.76137 219.88525,577.23013 169.11719,571.5625 109.00796,564.85204 50.554488,543.74008 0.03125,510.49023 Z"
           transform="translate(0,-2)" /><path
           id="path11247"
           style="display:inline;fill:url(#linearGradient12233);fill-opacity:1;stroke-width:6.93461"
           d="M 0.03125,506.49023 0,511.95898 v 4 l 0.03125,-5.46875 c 50.523238,33.24985 108.97671,54.36181 169.08594,61.07227 50.76806,5.66763 102.0322,1.19887 153.08008,-0.70703 51.04786,-1.9059 103.13437,-1.09458 151.74218,14.61523 45.30144,14.64122 85.47708,41.5273 125.01563,68.04688 39.53855,26.51957 79.7785,53.33253 125.13672,67.79687 42.72883,13.62587 88.25625,15.70303 133.09961,15.00196 44.84334,-0.70108 89.74964,-4.06807 134.48632,-0.89844 92.87447,6.58022 183.54287,42.12836 255.91997,100.69922 68.1961,55.18749 118.8495,128.64289 179.4863,192.04301 68.0942,71.1974 149.4309,129.4806 238.3711,171.8398 h 8.1074 c -92.1314,-42.6532 -176.3021,-102.4654 -246.4785,-175.8398 -60.6368,-63.40012 -111.2902,-136.85552 -179.4863,-192.04301 -72.3771,-58.57086 -163.0455,-94.119 -255.91997,-100.69922 -44.73668,-3.16963 -89.64298,0.19736 -134.48632,0.89844 -44.84336,0.70107 -90.37078,-1.37609 -133.09961,-15.00196 C 678.73358,702.85011 638.49363,676.03715 598.95508,649.51758 559.41653,622.998 519.24089,596.11192 473.93945,581.4707 425.33164,565.76089 373.24513,564.94957 322.19727,566.85547 271.14939,568.76137 219.88525,573.23013 169.11719,567.5625 109.00796,560.85204 50.554488,539.74008 0.03125,506.49023 Z"
           transform="translate(0,-2)" /><path
           id="path10957"
           style="display:inline;fill:url(#linearGradient12223);fill-opacity:1;stroke-width:6.93461"
           d="M 0.03125,500.49023 0,505.95898 v 4 l 0.03125,-5.46875 c 50.523238,33.24985 108.97671,54.36181 169.08594,61.07227 50.76806,5.66763 102.0322,1.19887 153.08008,-0.70703 51.04786,-1.9059 103.13437,-1.09458 151.74218,14.61523 45.30144,14.64122 85.47708,41.5273 125.01563,68.04688 39.53855,26.51957 79.7785,53.33253 125.13672,67.79687 42.72883,13.62587 88.25625,15.70303 133.09961,15.00196 44.84334,-0.70108 89.74964,-4.06807 134.48632,-0.89844 92.87447,6.58022 183.54287,42.12836 255.91997,100.69922 68.1961,55.18749 118.8495,128.64289 179.4863,192.04301 70.2793,73.482 154.6707,133.1927 246.9687,175.8398 h 8.3672 c -95.5962,-42.8661 -182.92,-104.1238 -255.3359,-179.8398 -60.6368,-63.40012 -111.2902,-136.85552 -179.4863,-192.04301 -72.3771,-58.57086 -163.0455,-94.119 -255.91997,-100.69922 -44.73668,-3.16963 -89.64298,0.19736 -134.48632,0.89844 -44.84336,0.70107 -90.37078,-1.37609 -133.09961,-15.00196 C 678.73358,696.85011 638.49363,670.03715 598.95508,643.51758 559.41653,616.998 519.24089,590.11192 473.93945,575.4707 425.33164,559.76089 373.24513,558.94957 322.19727,560.85547 271.14939,562.76137 219.88525,567.23013 169.11719,561.5625 109.00796,554.85204 50.554488,533.74008 0.03125,500.49023 Z" /><path
           id="path4564-5"
           style="display:inline;fill:url(#radialGradient4682);fill-opacity:1;stroke-width:14.0435"
           d="m -468.37224,531.00248 c -2.83599,-12.17981 -6.02562,-24.24412 -9.36832,-36.18904 -5.91637,-21.14179 -12.22735,-42.19005 -18.05422,-63.3865 a 349.60776,921.49243 0 0 0 -192.84609,798.06516 l 0.45851,76.5894 a 349.60776,921.49243 0 0 0 35.36574,352.7547 c 43.15827,-64.6964 90.83868,-127.0673 123.27778,-196.737 41.16564,-88.4117 55.61975,-186.4082 41.15265,-276.7259 -6.96867,-43.5052 -20.38946,-84.9662 -31.1802,-127.2669 -10.79074,-42.3005 -19.0095,-86.18726 -15.26581,-131.31486 3.97404,-47.90457 21.21803,-95.11954 38.33217,-141.57018 17.11412,-46.45065 34.44438,-93.62927 38.60476,-141.53964 3.34803,-38.5554 -1.969,-76.13984 -10.47697,-112.67924 z"
           transform="matrix(0.33505165,-0.94219976,0.97464011,0.22377813,0,0)" /></g><g
         id="g4680"
         style="display:inline"
         transform="translate(2)"><path
           id="path1990"
           style="display:inline;fill:url(#radialGradient3746);fill-opacity:1;stroke-width:7.281"
           d="m 1917.248,509.43945 c -29.9085,26.24415 -62.2667,49.6951 -96.5175,69.94727 -46.6761,27.59903 -96.8099,49.21964 -148.6114,65.25 -38.3651,11.8724 -77.632,20.69469 -115.8906,32.90625 -38.2585,12.21156 -75.8891,28.05934 -107.8008,52.44141 -34.9719,26.72027 -61.6957,62.57131 -87.3672,98.32031 -25.6713,35.749 -51.129,72.29004 -84.3535,101.15429 -55.3566,48.09186 -127.599,71.07012 -191.3847,107.24412 -69.9747,39.684 -130.19353,96.2564 -174.62699,163.2969 H 1915.2598 Z"
           transform="translate(0,-2)" /><path
           id="path12632"
           style="display:inline;fill:url(#linearGradient12650);fill-opacity:1;stroke-width:7.281"
           d="m 1917.248,499.43945 c -29.9084,26.24412 -62.2667,49.69512 -96.5175,69.94727 -46.6761,27.599 -96.8099,49.21965 -148.6114,65.25 -38.3651,11.87239 -77.632,20.6947 -115.8906,32.90625 -38.2585,12.21154 -75.8891,28.05936 -107.8008,52.44141 -34.9719,26.72023 -61.6957,62.57134 -87.3672,98.32031 -25.6713,35.74896 -51.129,72.29007 -84.3535,101.15429 -55.3565,48.09182 -127.5991,71.07011 -191.3847,107.24412 -73.4136,41.6342 -136.02124,101.8911 -180.98441,173.2969 h 6.7168 c 44.38544,-66.9966 104.34611,-123.6431 174.26761,-163.2969 63.7856,-36.174 136.0282,-59.1523 191.3847,-107.24412 33.2245,-28.86422 58.6822,-65.40533 84.3535,-101.15429 25.6715,-35.74897 52.3953,-71.60008 87.3672,-98.32031 31.9117,-24.38205 69.5423,-40.22987 107.8008,-52.44141 38.2586,-12.21155 77.5255,-21.03386 115.8906,-32.90625 51.8015,-16.03035 101.9353,-37.651 148.6114,-65.25 34.24,-20.24578 66.5876,-43.68972 96.4883,-69.92383 z"
           transform="translate(0,-2)" /><path
           id="path12634"
           style="display:inline;fill:url(#linearGradient12642);fill-opacity:1;stroke-width:7.281"
           d="m 1917.248,489.43945 c -29.9084,26.24412 -62.2667,49.69512 -96.5175,69.94727 -46.6761,27.599 -96.8099,49.21965 -148.6114,65.25 -38.3651,11.87239 -77.632,20.6947 -115.8906,32.90625 -38.2585,12.21154 -75.8891,28.05936 -107.8008,52.44141 -34.9719,26.72023 -61.6957,62.57134 -87.3672,98.32031 -25.6713,35.74896 -51.129,72.29007 -84.3535,101.15429 -55.3565,48.09182 -127.5991,71.07011 -191.3847,107.24412 -76.8007,43.5551 -141.71451,107.5258 -187.01566,183.2969 h 6.42383 c 44.93133,-71.3436 107.23833,-131.6967 180.59183,-173.2969 63.7856,-36.17401 136.0282,-59.1523 191.3847,-107.24412 33.2245,-28.86422 58.6822,-65.40533 84.3535,-101.15429 25.6715,-35.74897 52.3953,-71.60008 87.3672,-98.32031 31.9117,-24.38205 69.5423,-40.22987 107.8008,-52.44141 38.2586,-12.21155 77.5255,-21.03386 115.8906,-32.90625 51.8015,-16.03035 101.9353,-37.651 148.6114,-65.25 34.24,-20.24578 66.5876,-43.68972 96.4883,-69.92383 z"
           transform="translate(0,-2)" /><path
           id="path12411"
           style="display:inline;fill:url(#linearGradient12658);fill-opacity:1;stroke-width:7.281"
           d="m 1917.248,477.43945 c -29.9084,26.24412 -62.2667,49.69512 -96.5175,69.94727 -46.6761,27.599 -96.8099,49.21965 -148.6114,65.25 -38.3651,11.87239 -77.632,20.6947 -115.8906,32.90625 -38.2585,12.21154 -75.8891,28.05936 -107.8008,52.44141 -34.9719,26.72023 -61.6957,62.57134 -87.3672,98.32031 -25.6713,35.74896 -51.129,72.29007 -84.3535,101.15429 -55.3565,48.09182 -127.5991,71.07011 -191.3847,107.24412 C 1005.1347,1050.179 937.72984,1117.8033 892.27734,1198 h 6.13086 c 45.29329,-75.755 110.1289,-139.7505 186.9141,-183.2969 63.7856,-36.17401 136.0282,-59.1523 191.3847,-107.24412 33.2245,-28.86422 58.6822,-65.40533 84.3535,-101.15429 25.6715,-35.74897 52.3953,-71.60008 87.3672,-98.32031 31.9117,-24.38205 69.5423,-40.22987 107.8008,-52.44141 38.2586,-12.21155 77.5255,-21.03386 115.8906,-32.90625 51.8015,-16.03035 101.9353,-37.651 148.6114,-65.25 34.24,-20.24578 66.5876,-43.68972 96.4883,-69.92383 z" /><path
           id="path4564"
           style="display:inline;fill:url(#radialGradient4624);fill-opacity:1;stroke-width:9.18804"
           d="m 1681.1898,-243.86599 c -4.1024,4.36992 -8.2502,8.69816 -12.2537,13.16042 -26.8191,29.89259 -51.2567,62.60379 -66.443,99.78191 -16.6427,40.743466 -21.5507,85.18866 -25.6027,129.0132228 -4.052,43.8245122 -7.5188,88.2241672 -21.5693,129.9325772 -23.4101,69.49201 -74.0927,125.86797 -110.8038,189.34609 -14.9406,25.83412 -27.2883,53.09299 -37.4819,81.13763 a 405.83688,339.79221 90 0 0 11.8346,0.47963 405.83688,339.79221 90 0 0 327.3313,-411.965106 405.83688,339.79221 90 0 0 -65.0115,-230.886374 z"
           transform="rotate(30.399692)" /></g></g></g><rect
     style="display:inline;opacity:0.171034;fill:#27678d;fill-rule:evenodd"
     id="rect10287"
     width="1920"
     height="1200"
     x="0"
     y="0" /><g
     id="layer6"
     style="display:inline"><g
       id="g880001"
       style="display:inline;fill:#51a1d0;fill-opacity:1"
       transform="matrix(0.98475674,0,0,0.98475674,1229.1579,591.67491)"><path
         i:knockout="Off"
         fill="#51a1d0"
         d="m 51.986,57.297 c -1.797,0.025 0.34,0.926 2.686,1.287 0.648,-0.506 1.236,-1.018 1.76,-1.516 -1.461,0.358 -2.948,0.366 -4.446,0.229"
         id="path879977"
         style="fill:#51a1d0;fill-opacity:1" /><path
         i:knockout="Off"
         fill="#51a1d0"
         d="m 61.631,54.893 c 1.07,-1.477 1.85,-3.094 2.125,-4.766 -0.24,1.192 -0.887,2.221 -1.496,3.307 -3.359,2.115 -0.316,-1.256 -0.002,-2.537 -3.612,4.546 -0.496,2.726 -0.627,3.996"
         id="path879979"
         style="fill:#51a1d0;fill-opacity:1" /><path
         i:knockout="Off"
         fill="#51a1d0"
         d="m 65.191,45.629 c 0.217,-3.236 -0.637,-2.213 -0.924,-0.978 0.335,0.174 0.6,2.281 0.924,0.978"
         id="path879981"
         style="fill:#51a1d0;fill-opacity:1" /><path
         i:knockout="Off"
         fill="#51a1d0"
         d="m 45.172,1.399 c 0.959,0.172 2.072,0.304 1.916,0.533 1.049,-0.23 1.287,-0.442 -1.916,-0.533"
         id="path879983"
         style="fill:#51a1d0;fill-opacity:1" /><path
         i:knockout="Off"
         fill="#51a1d0"
         d="M 47.088,1.932 46.41,2.072 47.041,2.016 47.088,1.932"
         id="path879985"
         style="fill:#51a1d0;fill-opacity:1" /><path
         i:knockout="Off"
         fill="#51a1d0"
         d="m 76.992,46.856 c 0.107,2.906 -0.85,4.316 -1.713,6.812 l -1.553,0.776 c -1.271,2.468 0.123,1.567 -0.787,3.53 -1.984,1.764 -6.021,5.52 -7.313,5.863 -0.943,-0.021 0.639,-1.113 0.846,-1.541 -2.656,1.824 -2.131,2.738 -6.193,3.846 L 60.16,65.878 C 50.142,70.591 36.226,61.251 36.409,48.507 c -0.107,0.809 -0.304,0.607 -0.526,0.934 -0.517,-6.557 3.028,-13.143 9.007,-15.832 5.848,-2.895 12.704,-1.707 16.893,2.197 -2.301,-3.014 -6.881,-6.209 -12.309,-5.91 -5.317,0.084 -10.291,3.463 -11.951,7.131 -2.724,1.715 -3.04,6.611 -4.227,7.507 -1.597,11.737 3.004,16.808 10.787,22.773 1.225,0.826 0.345,0.951 0.511,1.58 -2.586,-1.211 -4.954,-3.039 -6.901,-5.277 1.033,1.512 2.148,2.982 3.589,4.137 -2.438,-0.826 -5.695,-5.908 -6.646,-6.115 4.203,7.525 17.052,13.197 23.78,10.383 -3.113,0.115 -7.068,0.064 -10.566,-1.229 -1.469,-0.756 -3.467,-2.322 -3.11,-2.615 9.182,3.43 18.667,2.598 26.612,-3.771 2.021,-1.574 4.229,-4.252 4.867,-4.289 -0.961,1.445 0.164,0.695 -0.574,1.971 2.014,-3.248 -0.875,-1.322 2.082,-5.609 l 1.092,1.504 c -0.406,-2.696 3.348,-5.97 2.967,-10.234 0.861,-1.304 0.961,1.403 0.047,4.403 1.268,-3.328 0.334,-3.863 0.66,-6.609 0.352,0.923 0.814,1.904 1.051,2.878 -0.826,-3.216 0.848,-5.416 1.262,-7.285 -0.408,-0.181 -1.275,1.422 -1.473,-2.377 0.029,-1.65 0.459,-0.865 0.625,-1.271 -0.324,-0.186 -1.174,-1.451 -1.691,-3.877 0.375,-0.57 1.002,1.478 1.512,1.562 -0.328,-1.929 -0.893,-3.4 -0.916,-4.88 -1.49,-3.114 -0.527,0.415 -1.736,-1.337 -1.586,-4.947 1.316,-1.148 1.512,-3.396 2.404,3.483 3.775,8.881 4.404,11.117 -0.48,-2.726 -1.256,-5.367 -2.203,-7.922 0.73,0.307 -1.176,-5.609 0.949,-1.691 C 83.519,18.706 76.074,10.902 69.225,7.24 70.063,8.007 71.121,8.97 70.741,9.121 67.335,7.093 67.934,6.935 67.446,6.078 64.671,4.949 64.489,6.169 62.651,6.08 57.421,3.306 56.413,3.601 51.6,1.863 l 0.219,1.023 c -3.465,-1.154 -4.037,0.438 -7.782,0.004 -0.228,-0.178 1.2,-0.644 2.375,-0.815 -3.35,0.442 -3.193,-0.66 -6.471,0.122 0.808,-0.567 1.662,-0.942 2.524,-1.424 -2.732,0.166 -6.522,1.59 -5.352,0.295 -4.456,1.988 -12.37,4.779 -16.811,8.943 l -0.14,-0.933 c -2.035,2.443 -8.874,7.296 -9.419,10.46 l -0.544,0.127 c -1.059,1.793 -1.744,3.825 -2.584,5.67 -1.385,2.36 -2.03,0.908 -1.833,1.278 -2.724,5.523 -4.077,10.164 -5.246,13.97 0.833,1.245 0.02,7.495 0.335,12.497 -1.368,24.704 17.338,48.69 37.785,54.228 2.997,1.072 7.454,1.031 11.245,1.141 -4.473,-1.279 -5.051,-0.678 -9.408,-2.197 -3.143,-1.48 -3.832,-3.17 -6.058,-5.102 l 0.881,1.557 c -4.366,-1.545 -2.539,-1.912 -6.091,-3.037 l 0.941,-1.229 C 28.751,98.334 26.418,96.056 25.78,94.795 l -1.548,0.061 c -1.86,-2.295 -2.851,-3.949 -2.779,-5.23 l -0.5,0.891 c -0.567,-0.973 -6.843,-8.607 -3.587,-6.83 -0.605,-0.553 -1.409,-0.9 -2.281,-2.484 l 0.663,-0.758 c -1.567,-2.016 -2.884,-4.6 -2.784,-5.461 0.836,1.129 1.416,1.34 1.99,1.533 -3.957,-9.818 -4.179,-0.541 -7.176,-9.994 L 8.412,66.472 C 7.926,65.74 7.631,64.945 7.24,64.165 l 0.276,-2.75 C 4.667,58.121 6.719,47.409 7.13,41.534 7.415,39.145 9.508,36.602 11.1,32.614 l -0.97,-0.167 c 1.854,-3.234 10.586,-12.988 14.63,-12.486 1.959,-2.461 -0.389,-0.009 -0.772,-0.629 4.303,-4.453 5.656,-3.146 8.56,-3.947 3.132,-1.859 -2.688,0.725 -1.203,-0.709 5.414,-1.383 3.837,-3.144 10.9,-3.846 0.745,0.424 -1.729,0.655 -2.35,1.205 4.511,-2.207 14.275,-1.705 20.617,1.225 7.359,3.439 15.627,13.605 15.953,23.17 l 0.371,0.1 c -0.188,3.802 0.582,8.199 -0.752,12.238 l 0.908,-1.912"
         id="path879987"
         style="fill:#51a1d0;fill-opacity:1" /><path
         i:knockout="Off"
         fill="#51a1d0"
         d="m 32.372,59.764 -0.252,1.26 c 1.181,1.604 2.118,3.342 3.626,4.596 -1.085,-2.118 -1.891,-2.993 -3.374,-5.856"
         id="path879989"
         style="fill:#51a1d0;fill-opacity:1" /><path
         i:knockout="Off"
         fill="#51a1d0"
         d="m 35.164,59.654 c -0.625,-0.691 -0.995,-1.523 -1.409,-2.352 0.396,1.457 1.207,2.709 1.962,3.982 l -0.553,-1.63"
         id="path879991"
         style="fill:#51a1d0;fill-opacity:1" /><path
         i:knockout="Off"
         fill="#51a1d0"
         d="m 84.568,48.916 -0.264,0.662 c -0.484,3.438 -1.529,6.84 -3.131,9.994 1.77,-3.328 2.915,-6.968 3.395,-10.656"
         id="path879993"
         style="fill:#51a1d0;fill-opacity:1" /><path
         i:knockout="Off"
         fill="#51a1d0"
         d="M 45.527,0.537 C 46.742,0.092 48.514,0.293 49.803,0 48.123,0.141 46.451,0.225 44.8,0.438 l 0.727,0.099"
         id="path879995"
         style="fill:#51a1d0;fill-opacity:1" /><path
         i:knockout="Off"
         fill="#51a1d0"
         d="m 2.872,23.219 c 0.28,2.592 -1.95,3.598 0.494,1.889 1.31,-2.951 -0.512,-0.815 -0.494,-1.889"
         id="path879997"
         style="fill:#51a1d0;fill-opacity:1" /><path
         i:knockout="Off"
         fill="#51a1d0"
         d="M 0,35.215 C 0.563,33.487 0.665,32.449 0.88,31.449 -0.676,33.438 0.164,33.862 0,35.215"
         id="path879999"
         style="fill:#51a1d0;fill-opacity:1" /></g></g></svg>
